<mxfile host="app.diagrams.net" modified="2023-06-17T19:35:45.065Z" agent="Mozilla/5.0 (Windows NT 10.0; Win64; x64) AppleWebKit/537.36 (KHTML, like Gecko) Chrome/114.0.0.0 Safari/537.36" etag="Ft1Nv-2fAIsUoflAQrga" version="21.4.0" type="device">
  <diagram name="Page-1" id="Vqb4yEz9L1Nfeo8MhR9K">
    <mxGraphModel dx="792" dy="1057" grid="0" gridSize="10" guides="1" tooltips="1" connect="1" arrows="1" fold="1" page="1" pageScale="1" pageWidth="827" pageHeight="1169" background="#ffffff" math="0" shadow="0">
      <root>
        <mxCell id="0" />
        <mxCell id="1" parent="0" />
        <mxCell id="Y-cUKsZXEQ0tpa2r1jD--29" style="edgeStyle=orthogonalEdgeStyle;rounded=0;orthogonalLoop=1;jettySize=auto;html=1;exitX=1;exitY=0.5;exitDx=0;exitDy=0;entryX=0;entryY=0.5;entryDx=0;entryDy=0;" edge="1" parent="1" source="Y-cUKsZXEQ0tpa2r1jD--1" target="Y-cUKsZXEQ0tpa2r1jD--5">
          <mxGeometry relative="1" as="geometry" />
        </mxCell>
        <mxCell id="Y-cUKsZXEQ0tpa2r1jD--31" style="edgeStyle=orthogonalEdgeStyle;rounded=0;orthogonalLoop=1;jettySize=auto;html=1;exitX=1;exitY=0.5;exitDx=0;exitDy=0;strokeColor=#000000;" edge="1" parent="1" source="Y-cUKsZXEQ0tpa2r1jD--1" target="Y-cUKsZXEQ0tpa2r1jD--5">
          <mxGeometry relative="1" as="geometry" />
        </mxCell>
        <mxCell id="Y-cUKsZXEQ0tpa2r1jD--1" value="Beacon + Maze" style="strokeColor=#000000;shadow=0;strokeWidth=1;rounded=1;absoluteArcSize=1;arcSize=2;labelPosition=center;verticalLabelPosition=middle;align=center;verticalAlign=bottom;spacingLeft=0;fontColor=#000000;fontSize=12;whiteSpace=wrap;spacingBottom=2;html=1;fillColor=none;" vertex="1" parent="1">
          <mxGeometry x="13" y="236.5" width="94" height="94" as="geometry" />
        </mxCell>
        <mxCell id="Y-cUKsZXEQ0tpa2r1jD--2" value="" style="sketch=0;dashed=0;connectable=0;html=1;fillColor=#757575;strokeColor=none;shape=mxgraph.gcp2.beacon;part=1;fontColor=#000000;" vertex="1" parent="Y-cUKsZXEQ0tpa2r1jD--1">
          <mxGeometry x="0.5" width="36.5" height="50" relative="1" as="geometry">
            <mxPoint x="-18.25" y="10" as="offset" />
          </mxGeometry>
        </mxCell>
        <mxCell id="Y-cUKsZXEQ0tpa2r1jD--4" value="" style="sketch=0;pointerEvents=1;shadow=0;dashed=0;html=1;strokeColor=none;fillColor=#505050;labelPosition=center;verticalLabelPosition=bottom;verticalAlign=top;outlineConnect=0;align=center;shape=mxgraph.office.devices.video_camera;direction=east;flipH=1;" vertex="1" parent="1">
          <mxGeometry x="181" y="259" width="52" height="25" as="geometry" />
        </mxCell>
        <mxCell id="Y-cUKsZXEQ0tpa2r1jD--32" style="edgeStyle=orthogonalEdgeStyle;rounded=0;orthogonalLoop=1;jettySize=auto;html=1;exitX=1;exitY=0.5;exitDx=0;exitDy=0;entryX=0;entryY=0.5;entryDx=0;entryDy=0;strokeColor=#000000;" edge="1" parent="1" source="Y-cUKsZXEQ0tpa2r1jD--5" target="Y-cUKsZXEQ0tpa2r1jD--7">
          <mxGeometry relative="1" as="geometry" />
        </mxCell>
        <mxCell id="Y-cUKsZXEQ0tpa2r1jD--5" value="" style="rounded=0;whiteSpace=wrap;html=1;fillColor=none;strokeColor=#000000;" vertex="1" parent="1">
          <mxGeometry x="143" y="235" width="118" height="97" as="geometry" />
        </mxCell>
        <mxCell id="Y-cUKsZXEQ0tpa2r1jD--6" value="&lt;font color=&quot;#000000&quot;&gt;D8M GPIO&lt;/font&gt;" style="text;html=1;align=center;verticalAlign=middle;resizable=0;points=[];autosize=1;strokeColor=none;fillColor=none;" vertex="1" parent="1">
          <mxGeometry x="166" y="303" width="77" height="26" as="geometry" />
        </mxCell>
        <mxCell id="Y-cUKsZXEQ0tpa2r1jD--33" style="edgeStyle=orthogonalEdgeStyle;rounded=0;orthogonalLoop=1;jettySize=auto;html=1;exitX=1;exitY=0.5;exitDx=0;exitDy=0;entryX=0;entryY=0.5;entryDx=0;entryDy=0;strokeColor=#000000;" edge="1" parent="1" source="Y-cUKsZXEQ0tpa2r1jD--7" target="Y-cUKsZXEQ0tpa2r1jD--11">
          <mxGeometry relative="1" as="geometry" />
        </mxCell>
        <mxCell id="Y-cUKsZXEQ0tpa2r1jD--7" value="" style="rounded=0;whiteSpace=wrap;html=1;fillColor=none;strokeColor=#000000;" vertex="1" parent="1">
          <mxGeometry x="293" y="223.75" width="91" height="119.5" as="geometry" />
        </mxCell>
        <mxCell id="Y-cUKsZXEQ0tpa2r1jD--8" value="" style="dashed=0;outlineConnect=0;html=1;align=center;labelPosition=center;verticalLabelPosition=bottom;verticalAlign=top;shape=mxgraph.webicons.buffer;gradientColor=#DFDEDE" vertex="1" parent="1">
          <mxGeometry x="304" y="239.25" width="67" height="62" as="geometry" />
        </mxCell>
        <mxCell id="Y-cUKsZXEQ0tpa2r1jD--10" value="&lt;font color=&quot;#000000&quot;&gt;Input Buffer&lt;/font&gt;" style="text;html=1;align=center;verticalAlign=middle;resizable=0;points=[];autosize=1;strokeColor=none;fillColor=none;" vertex="1" parent="1">
          <mxGeometry x="297.5" y="312.25" width="80" height="26" as="geometry" />
        </mxCell>
        <mxCell id="Y-cUKsZXEQ0tpa2r1jD--34" style="edgeStyle=orthogonalEdgeStyle;rounded=0;orthogonalLoop=1;jettySize=auto;html=1;exitX=1;exitY=0.5;exitDx=0;exitDy=0;strokeColor=#000000;" edge="1" parent="1" source="Y-cUKsZXEQ0tpa2r1jD--11" target="Y-cUKsZXEQ0tpa2r1jD--14">
          <mxGeometry relative="1" as="geometry" />
        </mxCell>
        <mxCell id="Y-cUKsZXEQ0tpa2r1jD--37" style="edgeStyle=orthogonalEdgeStyle;rounded=0;orthogonalLoop=1;jettySize=auto;html=1;exitX=0.5;exitY=1;exitDx=0;exitDy=0;entryX=0.5;entryY=0;entryDx=0;entryDy=0;strokeColor=#000000;" edge="1" parent="1" source="Y-cUKsZXEQ0tpa2r1jD--11" target="Y-cUKsZXEQ0tpa2r1jD--20">
          <mxGeometry relative="1" as="geometry" />
        </mxCell>
        <mxCell id="Y-cUKsZXEQ0tpa2r1jD--11" value="" style="rounded=0;whiteSpace=wrap;html=1;strokeColor=#000000;fillColor=none;" vertex="1" parent="1">
          <mxGeometry x="420" y="233.5" width="118" height="100" as="geometry" />
        </mxCell>
        <mxCell id="Y-cUKsZXEQ0tpa2r1jD--12" value="" style="sketch=0;html=1;aspect=fixed;strokeColor=none;shadow=0;fillColor=#000000;verticalAlign=top;labelPosition=center;verticalLabelPosition=bottom;shape=mxgraph.gcp2.gear" vertex="1" parent="1">
          <mxGeometry x="456" y="243.5" width="45" height="45" as="geometry" />
        </mxCell>
        <mxCell id="Y-cUKsZXEQ0tpa2r1jD--13" value="&lt;font color=&quot;#000000&quot;&gt;Processing in:&lt;br&gt;EEE_IMGPROC.v&lt;/font&gt;" style="text;html=1;align=center;verticalAlign=middle;resizable=0;points=[];autosize=1;strokeColor=none;fillColor=none;" vertex="1" parent="1">
          <mxGeometry x="421" y="292.5" width="115" height="41" as="geometry" />
        </mxCell>
        <mxCell id="Y-cUKsZXEQ0tpa2r1jD--35" style="edgeStyle=orthogonalEdgeStyle;rounded=0;orthogonalLoop=1;jettySize=auto;html=1;exitX=1;exitY=0.5;exitDx=0;exitDy=0;entryX=0;entryY=0.5;entryDx=0;entryDy=0;strokeColor=#000000;" edge="1" parent="1" source="Y-cUKsZXEQ0tpa2r1jD--14" target="Y-cUKsZXEQ0tpa2r1jD--18">
          <mxGeometry relative="1" as="geometry" />
        </mxCell>
        <mxCell id="Y-cUKsZXEQ0tpa2r1jD--14" value="" style="rounded=0;whiteSpace=wrap;html=1;fillColor=none;strokeColor=#000000;" vertex="1" parent="1">
          <mxGeometry x="578" y="223.75" width="91" height="119.5" as="geometry" />
        </mxCell>
        <mxCell id="Y-cUKsZXEQ0tpa2r1jD--15" value="" style="dashed=0;outlineConnect=0;html=1;align=center;labelPosition=center;verticalLabelPosition=bottom;verticalAlign=top;shape=mxgraph.webicons.buffer;gradientColor=#DFDEDE" vertex="1" parent="1">
          <mxGeometry x="589" y="239.25" width="67" height="62" as="geometry" />
        </mxCell>
        <mxCell id="Y-cUKsZXEQ0tpa2r1jD--16" value="&lt;font color=&quot;#000000&quot;&gt;Output Buffer&lt;/font&gt;" style="text;html=1;align=center;verticalAlign=middle;resizable=0;points=[];autosize=1;strokeColor=none;fillColor=none;" vertex="1" parent="1">
          <mxGeometry x="578.5" y="312.25" width="89" height="26" as="geometry" />
        </mxCell>
        <mxCell id="Y-cUKsZXEQ0tpa2r1jD--17" value="" style="shape=image;verticalLabelPosition=bottom;labelBackgroundColor=default;verticalAlign=top;aspect=fixed;imageAspect=0;image=https://cdn-icons-png.flaticon.com/512/526/526981.png;" vertex="1" parent="1">
          <mxGeometry x="717" y="230.63" width="79" height="79" as="geometry" />
        </mxCell>
        <mxCell id="Y-cUKsZXEQ0tpa2r1jD--18" value="" style="rounded=0;whiteSpace=wrap;html=1;strokeColor=#000000;fillColor=none;" vertex="1" parent="1">
          <mxGeometry x="706" y="236.38" width="99" height="93.62" as="geometry" />
        </mxCell>
        <mxCell id="Y-cUKsZXEQ0tpa2r1jD--19" value="&lt;font color=&quot;#000000&quot;&gt;VGA Out&lt;/font&gt;" style="text;html=1;align=center;verticalAlign=middle;resizable=0;points=[];autosize=1;strokeColor=none;fillColor=none;" vertex="1" parent="1">
          <mxGeometry x="724" y="304.63" width="65" height="26" as="geometry" />
        </mxCell>
        <mxCell id="Y-cUKsZXEQ0tpa2r1jD--38" style="edgeStyle=orthogonalEdgeStyle;rounded=0;orthogonalLoop=1;jettySize=auto;html=1;exitX=1;exitY=0.5;exitDx=0;exitDy=0;entryX=0;entryY=0.5;entryDx=0;entryDy=0;strokeColor=#000000;" edge="1" parent="1" source="Y-cUKsZXEQ0tpa2r1jD--20" target="Y-cUKsZXEQ0tpa2r1jD--24">
          <mxGeometry relative="1" as="geometry" />
        </mxCell>
        <mxCell id="Y-cUKsZXEQ0tpa2r1jD--20" value="" style="rounded=0;whiteSpace=wrap;html=1;fillColor=none;strokeColor=#000000;" vertex="1" parent="1">
          <mxGeometry x="433.5" y="400" width="91" height="119.5" as="geometry" />
        </mxCell>
        <mxCell id="Y-cUKsZXEQ0tpa2r1jD--21" value="" style="dashed=0;outlineConnect=0;html=1;align=center;labelPosition=center;verticalLabelPosition=bottom;verticalAlign=top;shape=mxgraph.webicons.buffer;gradientColor=#DFDEDE" vertex="1" parent="1">
          <mxGeometry x="444.5" y="415.5" width="67" height="62" as="geometry" />
        </mxCell>
        <mxCell id="Y-cUKsZXEQ0tpa2r1jD--22" value="&lt;font color=&quot;#000000&quot;&gt;MSG_FIFO&lt;/font&gt;" style="text;html=1;align=center;verticalAlign=middle;resizable=0;points=[];autosize=1;strokeColor=none;fillColor=none;" vertex="1" parent="1">
          <mxGeometry x="439" y="488.5" width="79" height="26" as="geometry" />
        </mxCell>
        <mxCell id="Y-cUKsZXEQ0tpa2r1jD--23" value="" style="shape=image;verticalLabelPosition=bottom;labelBackgroundColor=default;verticalAlign=top;aspect=fixed;imageAspect=0;image=data:image/png,iVBORw0KGgoAAAANSUhEUgAAAH8AAAB/CAMAAADxY+0hAAAAY1BMVEX///8AAADy8vKqqqo0NDQ3Nzc7Ozubm5tNTU2Wlpbi4uLv7+8fHx/s7Oy5ubkWFhakpKRCQkInJyf4+PguLi6wsLDPz89/f38RERGFhYXV1dVZWVnExMR1dXVISEiOjo5mZmbehixXAAAD80lEQVRoge2b67qqIBCGQyuT1MxzVtb9X+VWBktUPADKXmv5/fJ5BudVhHHAcbfb9MN0dnmG8wr08I7QKeQZjMX5T1Tq2WNIK8N7cX5WYaLufRrHyoAW5xOK033Sxn7jb/xfyjeSz4Rj+eekPmrxw0RhKDLLSW/28UtD5vfxvfLQV4XHxDPu8t2GgeHDGbkifky8+V2+2TAwfOYMaQHG2vgb/0/ywZsdGqVC4GNy7MOFEYMLfGgEF2aOux5XiP2CeIuKayk4RldyHDUMVzAUDUNh4b5Ecd69n5CMiliKnkdS9EpBIo73pemVbFH8SwkeoZv03WcikuyBvD777WGh68ePZ+1CYAyEBzj1JAanl3AHJ8H8eQghBD3lZnBIu2B2KAwh0BylAwjEj+PcbDCB65ZPobDYCLBh6Enj6YJ56hzMY5MohnDuKeA/iKdD7XiwR1sB7yIz9mvhgHVq8ZuGrcC1V7GhQjcGvuI7TVotD4vwH9ym7ftfhs/bviplrcB/DTXOTZ/Icnr4iT1NMRO0gH+xwbE5MRDsu/wnmiqn2cXAn/sGiDr8x2Q8G7cof2YA7vKtYSSj08aX5HfHH/CfNI5zFKdifG/vsEIc/lg+73H4qOU/YhxxxnYPf2xNxeV31Hy3vjXwm23umvm6+38XX/eslPNb/q8tR6HLijf/RfkBZv2PvQ6U8xXFv42/Dp8X/4X50/KPvH6RdPMvOb7jU8dz1h+LxJ+BzQgDrcAXXX8o4/PXH+vc/8D6Q/PzL8e/b4FUj/+LDX79iTsamub/R7rj38bXy195/HkF6tGC+eeRST9157861h/3Rhvd6w9PA59ZgNL91vX4x/b6w2DFm/8WHpbP4Qcu6190/ZFdhpXx+D9s/+X/48cz+M25rSr+nw/T+c3YNiv/wLEZE/Xs/+L3fpoKJsOl6w/wa8aDnzRM9jYW2f8e+BSne/9f9/ePwfWHMv7A+sNmWzoqvn+5rRqGwS+BOV1+WMeRrpouyG2i2vHE7x9Qe9BX5ztXt/G77lEy+qwmys2EepKOmvt4yxG9BUcyfd2kknjofYEKjBC2YNFdqv6BJraOQDFonZNf0tw9GwJycepQH0Lf0W/fOHA4Csj5nC/4EDmrgtl6i+FVFSAJlh9V8oJx9yNypGoozi+5KwhushHM8NKLIDxLPSVF2JB5MvWX4LdZfxl26y/lav++0l3/ufE3vn4+t/7fWpoPuVjS5ecNA8MHg4rslahKy+sMpsknBvp6Yf//sJDUe6ct/C1BZfg7/KgNrf9fsKfq74+WWP5Xv/r/o43/EclHespyQ1Jomy3O9xuxkJHJMyiWeWrXblDF10LJHxeb/pD+AUVQTjqWbUNfAAAAAElFTkSuQmCC;" vertex="1" parent="1">
          <mxGeometry x="589" y="407" width="66" height="66" as="geometry" />
        </mxCell>
        <mxCell id="Y-cUKsZXEQ0tpa2r1jD--39" style="edgeStyle=orthogonalEdgeStyle;rounded=0;orthogonalLoop=1;jettySize=auto;html=1;exitX=1;exitY=0.5;exitDx=0;exitDy=0;entryX=0;entryY=0.5;entryDx=0;entryDy=0;strokeColor=#000000;" edge="1" parent="1" source="Y-cUKsZXEQ0tpa2r1jD--24" target="Y-cUKsZXEQ0tpa2r1jD--27">
          <mxGeometry relative="1" as="geometry" />
        </mxCell>
        <mxCell id="Y-cUKsZXEQ0tpa2r1jD--24" value="" style="rounded=0;whiteSpace=wrap;html=1;fillColor=none;strokeColor=#000000;" vertex="1" parent="1">
          <mxGeometry x="576.5" y="400" width="91" height="119.5" as="geometry" />
        </mxCell>
        <mxCell id="Y-cUKsZXEQ0tpa2r1jD--25" value="&lt;font color=&quot;#000000&quot;&gt;NIOS II &lt;br&gt;Softprocessor&lt;br&gt;&lt;/font&gt;" style="text;html=1;align=center;verticalAlign=middle;resizable=0;points=[];autosize=1;strokeColor=none;fillColor=none;" vertex="1" parent="1">
          <mxGeometry x="576" y="473.5" width="92" height="41" as="geometry" />
        </mxCell>
        <mxCell id="Y-cUKsZXEQ0tpa2r1jD--26" value="" style="shape=image;verticalLabelPosition=bottom;labelBackgroundColor=default;verticalAlign=top;aspect=fixed;imageAspect=0;image=data:image/png,iVBORw0KGgoAAAANSUhEUgAAAH8AAAB/CAMAAADxY+0hAAAAY1BMVEX///8AAADy8vKqqqo0NDQ3Nzc7Ozubm5tNTU2Wlpbi4uLv7+8fHx/s7Oy5ubkWFhakpKRCQkInJyf4+PguLi6wsLDPz89/f38RERGFhYXV1dVZWVnExMR1dXVISEiOjo5mZmbehixXAAAD80lEQVRoge2b67qqIBCGQyuT1MxzVtb9X+VWBktUPADKXmv5/fJ5BudVhHHAcbfb9MN0dnmG8wr08I7QKeQZjMX5T1Tq2WNIK8N7cX5WYaLufRrHyoAW5xOK033Sxn7jb/xfyjeSz4Rj+eekPmrxw0RhKDLLSW/28UtD5vfxvfLQV4XHxDPu8t2GgeHDGbkifky8+V2+2TAwfOYMaQHG2vgb/0/ywZsdGqVC4GNy7MOFEYMLfGgEF2aOux5XiP2CeIuKayk4RldyHDUMVzAUDUNh4b5Ecd69n5CMiliKnkdS9EpBIo73pemVbFH8SwkeoZv03WcikuyBvD777WGh68ePZ+1CYAyEBzj1JAanl3AHJ8H8eQghBD3lZnBIu2B2KAwh0BylAwjEj+PcbDCB65ZPobDYCLBh6Enj6YJ56hzMY5MohnDuKeA/iKdD7XiwR1sB7yIz9mvhgHVq8ZuGrcC1V7GhQjcGvuI7TVotD4vwH9ym7ftfhs/bviplrcB/DTXOTZ/Icnr4iT1NMRO0gH+xwbE5MRDsu/wnmiqn2cXAn/sGiDr8x2Q8G7cof2YA7vKtYSSj08aX5HfHH/CfNI5zFKdifG/vsEIc/lg+73H4qOU/YhxxxnYPf2xNxeV31Hy3vjXwm23umvm6+38XX/eslPNb/q8tR6HLijf/RfkBZv2PvQ6U8xXFv42/Dp8X/4X50/KPvH6RdPMvOb7jU8dz1h+LxJ+BzQgDrcAXXX8o4/PXH+vc/8D6Q/PzL8e/b4FUj/+LDX79iTsamub/R7rj38bXy195/HkF6tGC+eeRST9157861h/3Rhvd6w9PA59ZgNL91vX4x/b6w2DFm/8WHpbP4Qcu6190/ZFdhpXx+D9s/+X/48cz+M25rSr+nw/T+c3YNiv/wLEZE/Xs/+L3fpoKJsOl6w/wa8aDnzRM9jYW2f8e+BSne/9f9/ePwfWHMv7A+sNmWzoqvn+5rRqGwS+BOV1+WMeRrpouyG2i2vHE7x9Qe9BX5ztXt/G77lEy+qwmys2EepKOmvt4yxG9BUcyfd2kknjofYEKjBC2YNFdqv6BJraOQDFonZNf0tw9GwJycepQH0Lf0W/fOHA4Csj5nC/4EDmrgtl6i+FVFSAJlh9V8oJx9yNypGoozi+5KwhushHM8NKLIDxLPSVF2JB5MvWX4LdZfxl26y/lav++0l3/ufE3vn4+t/7fWpoPuVjS5ecNA8MHg4rslahKy+sMpsknBvp6Yf//sJDUe6ct/C1BZfg7/KgNrf9fsKfq74+WWP5Xv/r/o43/EclHespyQ1Jomy3O9xuxkJHJMyiWeWrXblDF10LJHxeb/pD+AUVQTjqWbUNfAAAAAElFTkSuQmCC;" vertex="1" parent="1">
          <mxGeometry x="723.5" y="407" width="66" height="66" as="geometry" />
        </mxCell>
        <mxCell id="Y-cUKsZXEQ0tpa2r1jD--27" value="" style="rounded=0;whiteSpace=wrap;html=1;fillColor=none;strokeColor=#000000;" vertex="1" parent="1">
          <mxGeometry x="711" y="400" width="91" height="119.5" as="geometry" />
        </mxCell>
        <mxCell id="Y-cUKsZXEQ0tpa2r1jD--28" value="&lt;font color=&quot;#000000&quot;&gt;ESP32&lt;br&gt;&lt;/font&gt;" style="text;html=1;align=center;verticalAlign=middle;resizable=0;points=[];autosize=1;strokeColor=none;fillColor=none;" vertex="1" parent="1">
          <mxGeometry x="729.5" y="481.5" width="55" height="26" as="geometry" />
        </mxCell>
        <mxCell id="Y-cUKsZXEQ0tpa2r1jD--40" value="&lt;font color=&quot;#000000&quot;&gt;I2C/&lt;br&gt;MIP&lt;/font&gt;I" style="text;html=1;align=center;verticalAlign=middle;resizable=0;points=[];autosize=1;strokeColor=none;fillColor=none;" vertex="1" parent="1">
          <mxGeometry x="254.5" y="284" width="43" height="41" as="geometry" />
        </mxCell>
        <mxCell id="Y-cUKsZXEQ0tpa2r1jD--41" value="&lt;font color=&quot;#000000&quot;&gt;UART&lt;/font&gt;" style="text;html=1;align=center;verticalAlign=middle;resizable=0;points=[];autosize=1;strokeColor=none;fillColor=none;" vertex="1" parent="1">
          <mxGeometry x="664.5" y="427.5" width="50" height="26" as="geometry" />
        </mxCell>
        <mxCell id="Y-cUKsZXEQ0tpa2r1jD--42" value="&lt;b&gt;&lt;u&gt;&lt;font style=&quot;font-size: 23px;&quot; color=&quot;#000000&quot;&gt;Image Processing System Outline&lt;/font&gt;&lt;/u&gt;&lt;/b&gt;" style="text;html=1;align=center;verticalAlign=middle;resizable=0;points=[];autosize=1;strokeColor=none;fillColor=none;" vertex="1" parent="1">
          <mxGeometry x="197" y="166" width="389" height="40" as="geometry" />
        </mxCell>
      </root>
    </mxGraphModel>
  </diagram>
</mxfile>
